<?xml version="1.0" encoding="utf-8"?>
<!-- Generator: Adobe Illustrator 22.1.0, SVG Export Plug-In . SVG Version: 6.00 Build 0)  -->
<svg version="1.1" id="Лого_текст_в_кривых"
	 xmlns="http://www.w3.org/2000/svg" xmlns:xlink="http://www.w3.org/1999/xlink" x="0px" y="0px"
	 viewBox="0 0 396.8 270" enable-background="new 0 0 396.8 270" xml:space="preserve">
<g>
	<path fill="#40C0D3" d="M232.2,72.2h33.7c14.8,0,22.2,6.5,22.2,19.6c0,11.3-8,19.3-24,24l14.3,19.8c10.4-10.3,16.8-24.5,16.8-40.3
		c0-31.3-25.4-56.7-56.7-56.7S181.8,64,181.8,95.3c0,29.2,22.1,53.2,50.5,56.3L232.2,72.2L232.2,72.2z"/>
	<path fill="#40C0D3" d="M256.3,116v-4.1c16.7-2.5,25.1-9,25.1-19.7c0-9.8-5.5-14.7-16.4-14.7h-26.7V152c0.1,0,0.2,0,0.2,0
		c13.2,0,25.3-4.5,35-12.1L256.3,116z"/>
</g>
<circle fill="#FFB75F" cx="131.3" cy="93.8" r="29.8"/>
<circle fill="#FFC96B" cx="113.4" cy="62.5" r="2.3"/>
<circle opacity="0.9" fill="#B3D446" enable-background="new    " cx="153.7" cy="48.2" r="32.3"/>
<circle fill="#F16059" fill-opacity="0.94" cx="180.3" cy="92.4" r="45.4"/>
<circle opacity="0.9" fill="#FCD035" enable-background="new    " cx="198.3" cy="37.2" r="37.2"/>
<circle fill="#FFC96B" fill-opacity="0.85" cx="110.1" cy="72.7" r="5.6"/>
<circle fill="#40C0D3" cx="289.9" cy="134.2" r="3.4"/>
<circle fill="#F5D876" cx="238.5" cy="20.4" r="2.1"/>
<circle fill="#F5D876" cx="241.1" cy="28.6" r="4.4"/>
<circle fill="#F16059" cx="142.1" cy="132.3" r="5.1"/>
<g id="Название_кривые_3_">
	<path fill="#2A3339" d="M0,250.4v-73.8h30.4c13.3,0,20,5.9,20,17.7c0,10.2-7.2,17.5-21.7,21.7l24.9,34.4h-7.4l-24.5-34.2v-3.7
		c15.1-2.2,22.7-8.2,22.7-17.8c0-8.9-5-13.3-14.9-13.3H5.4v69H0z"/>
	<path fill="#2A3339" d="M70.7,176.6v6.2h-6.4v-6.2H70.7z M70.2,196.2v54.2h-5.4v-54.2H70.2z"/>
	<path fill="#2A3339" d="M132.4,250.4c0,13.1-8,19.6-23.9,19.6c-6.7,0-12.6-0.9-17.7-2.6v-4.6c5.3,1.7,11.2,2.6,17.8,2.6
		c12.2,0,18.4-5,18.4-15v-2.6c-6.1,1.7-11.5,2.6-16.2,2.6c-17.1,0-25.7-9.1-25.7-27.4c0-17.8,9.2-26.8,27.6-26.8
		c7,0,13.5,0.7,19.7,2.2V250.4z M127,202.3c-5-0.8-9.9-1.2-14.7-1.2c-14.6,0-21.9,7.3-21.9,21.8c0,14.9,6.8,22.3,20.5,22.3
		c5,0,10.3-0.9,16.1-2.8V202.3z"/>
	<path fill="#2A3339" d="M148.9,250.4v-73.8h5.4v25.5c6.3-3.9,12.8-5.9,19.4-5.9c13.2,0,19.8,6.7,19.8,20.2v34h-5.4v-36.2
		c0-8.7-4.9-13.1-14.6-13.1c-6.5,0-12.9,2.3-19.2,6.9v42.5L148.9,250.4L148.9,250.4z"/>
	<path fill="#2A3339" d="M209.8,187.5h3.8l1,8.8h16.2v4.6H215v34.2c0,7.1,2.6,10.7,7.8,10.7h7.9v4.6H223c-8.8,0-13.2-4.9-13.2-14.6
		V187.5z"/>
	<path fill="#2A3339" d="M264.2,196.2c14.8,0,22.2,8.2,22.2,24.6c0,1.2,0,2.4-0.1,3.7h-41.1c0,14.2,7.5,21.3,22.5,21.3
		c6.2,0,11.6-0.9,16.4-2.6v4.6c-4.8,1.7-10.2,2.6-16.4,2.6c-18.6,0-27.9-9.2-27.9-27.7C239.8,205,247.9,196.2,264.2,196.2z
		 M245.2,219.6h36c-0.2-12.6-5.9-18.9-17-18.9C252.2,200.8,245.8,207.1,245.2,219.6z"/>
	<path fill="#2A3339" d="M339.6,248.8c-4.5,1-9.3,1.5-14.4,1.5c-18.2,0-27.3-9.4-27.3-28.1c0-17.4,9.1-26,27.3-26
		c5.2,0,10,0.5,14.4,1.5v4.6c-4.8-1-9.5-1.5-13.9-1.5c-14.6,0-21.9,7.1-21.9,21.4c0,15.6,7.3,23.5,21.9,23.5c4.5,0,9.1-0.5,13.9-1.5
		V248.8z"/>
	<path fill="#2A3339" d="M352.2,250.4v-73.8h5.4v25.5c6.3-3.9,12.8-5.9,19.4-5.9c13.2,0,19.8,6.7,19.8,20.2v34h-5.4v-36.2
		c0-8.7-4.9-13.1-14.6-13.1c-6.5,0-12.9,2.3-19.2,6.9v42.5L352.2,250.4L352.2,250.4z"/>
</g>
</svg>
